<?xml version="1.0"?>
<!DOCTYPE svg PUBLIC "-//W3C//DTD SVG 1.1//EN" "http://www.w3.org/Graphics/SVG/1.1/DTD/svg11.dtd">
<svg width="51.000000000000085mm" height="31.000000000000078mm" viewBox="0 0 51.000000000000085 31.000000000000078" xmlns="http://www.w3.org/2000/svg" version="1.1">
<g id="Body" transform="translate(25.500000,30.500000) scale(1,-1)">
<path id="Body_f0000"  d="M 10.000000000000014 20.000000000000004 L 25.000000000000014 19.999999999999986 L 25.00000000000002 29.999999999999996 L -25.000000000000036 30.000000000000053 L -25.000000000000036 -1.116e-14 L 10.0 -7e-15 L 10.000000000000016 20.00000000000001 Z " stroke="#191919" stroke-width="0.35 px" style="stroke-width:0.35;stroke-miterlimit:4;stroke-dasharray:none;stroke-linecap:square;fill:#cccccc;fill-opacity:1.0;fill-rule: evenodd"/>
<path id="Body_f0001"  d="M -25.0 30.000000000000046 L -25.00000000000005 30.00000000000007 L -25.00000000000006 5.2e-14 L -25.00000000000001 2.5e-14 L -25.0 30.000000000000046 Z " stroke="#191919" stroke-width="0.35 px" style="stroke-width:0.35;stroke-miterlimit:4;stroke-dasharray:none;stroke-linecap:square;fill:#cccccc;fill-opacity:1.0;fill-rule: evenodd"/>
<path id="Body_f0002"  d="M -25.000000000000103 30.000000000000007 L -25.000000000000064 30.00000000000003 L 25.00000000000002 29.999999999999996 L 24.99999999999997 30.00000000000002 L -25.00000000000008 30.00000000000005 Z " stroke="#191919" stroke-width="0.35 px" style="stroke-width:0.35;stroke-miterlimit:4;stroke-dasharray:none;stroke-linecap:square;fill:#cccccc;fill-opacity:1.0;fill-rule: evenodd"/>
<path id="Body_f0003"  d="M 24.99999999999997 20.000000000000014 L 25.000000000000018 19.999999999999982 L 25.00000000000002 29.999999999999996 L 24.99999999999997 30.00000000000002 L 24.99999999999997 20.000000000000014 Z " stroke="#191919" stroke-width="0.35 px" style="stroke-width:0.35;stroke-miterlimit:4;stroke-dasharray:none;stroke-linecap:square;fill:#cccccc;fill-opacity:1.0;fill-rule: evenodd"/>
<path id="Body_f0004"  d="M 9.999999999999995 20.00000000000001 L 10.000000000000016 20.0 L 10.0 -7e-15 L 9.999999999999979 2e-15 L 9.999999999999995 20.00000000000001 Z " stroke="#191919" stroke-width="0.35 px" style="stroke-width:0.35;stroke-miterlimit:4;stroke-dasharray:none;stroke-linecap:square;fill:#cccccc;fill-opacity:1.0;fill-rule: evenodd"/>
<path id="Body_f0005"  d="M -10.000000000000018 1.8859999999999998e-14 L 9.999999999999982 3.26e-15 L 10.000000000000009 3e-15 L -25.00000000000002 1.665e-14 L -25.000000000000075 -3.337e-14 L -10.000000000000048 3.7e-14 L -10.000000000000018 -8e-15 Z " stroke="#191919" stroke-width="0.35 px" style="stroke-width:0.35;stroke-miterlimit:4;stroke-dasharray:none;stroke-linecap:square;fill:#cccccc;fill-opacity:1.0;fill-rule: evenodd"/>
<path id="Body_f0006"  d="M 24.99999999999997 20.000000000000014 L -10.000000000000037 20.00000000000005 L -10.000000000000028 -1.966e-14 L -25.00000000000007 1.221e-14 L -25.000000000000103 30.000000000000007 L 24.99999999999997 30.00000000000002 L 24.99999999999997 20.000000000000014 Z " stroke="#191919" stroke-width="0.35 px" style="stroke-width:0.35;stroke-miterlimit:4;stroke-dasharray:none;stroke-linecap:square;fill:#cccccc;fill-opacity:1.0;fill-rule: evenodd"/>
<path id="Body_f0007"  d="M 9.999999999999979 2e-15 L 9.999999999999995 20.00000000000001 L -10.000000000000021 20.000000000000046 L -10.000000000000032 3.2e-14 L 9.999999999999982 3.26e-15 Z " stroke="#191919" stroke-width="0.35 px" style="stroke-width:0.35;stroke-miterlimit:4;stroke-dasharray:none;stroke-linecap:square;fill:#cccccc;fill-opacity:1.0;fill-rule: evenodd"/>
<path id="Body_f0008"  d="M -10.000000000000037 20.00000000000005 L -10.000000000000021 20.000000000000046 L -10.000000000000032 3.2e-14 L -10.000000000000048 3.7e-14 L -10.000000000000037 20.00000000000005 Z " stroke="#191919" stroke-width="0.35 px" style="stroke-width:0.35;stroke-miterlimit:4;stroke-dasharray:none;stroke-linecap:square;fill:#cccccc;fill-opacity:1.0;fill-rule: evenodd"/>
<path id="Body_f0009"  d="M 9.999999999999995 20.00000000000001 L -10.000000000000021 20.000000000000046 L -10.00000000000003 20.0 L 24.999999999999968 20.0 L 25.000000000000018 19.999999999999982 L 10.000000000000016 20.0 L 9.999999999999986 19.999999999999996 Z " stroke="#191919" stroke-width="0.35 px" style="stroke-width:0.35;stroke-miterlimit:4;stroke-dasharray:none;stroke-linecap:square;fill:#cccccc;fill-opacity:1.0;fill-rule: evenodd"/>
<title>b'Body'</title>
</g>
</svg>