<?xml version="1.0"?>
<!DOCTYPE svg PUBLIC "-//W3C//DTD SVG 1.1//EN" "http://www.w3.org/Graphics/SVG/1.1/DTD/svg11.dtd">
<svg width="20.4mm" height="15.399999999999999mm" viewBox="0 0 20.4 15.399999999999999" xmlns="http://www.w3.org/2000/svg" version="1.1">
<g id="Pad" transform="translate(10.200000,5.200000) scale(1,-1)">
<path id="Pad_f0000"  d="M 6e-16 0.0 L 6e-16 0.0 L 0.0 -10.0 L 0.0 -10.0 L 6e-16 0.0 Z " stroke="#191919" stroke-width="0.35 px" style="stroke-width:0.35;stroke-miterlimit:4;stroke-dasharray:none;stroke-linecap:square;fill:#cccccc;fill-opacity:1.0;fill-rule: evenodd"/>
<path id="Pad_f0001"  d="M 0.0 -10.0 L 0.0 -10.0 L -10.0 -10.0 L -10.0 -10.0 L 0.0 -10.0 Z " stroke="#191919" stroke-width="0.35 px" style="stroke-width:0.35;stroke-miterlimit:4;stroke-dasharray:none;stroke-linecap:square;fill:#cccccc;fill-opacity:1.0;fill-rule: evenodd"/>
<path id="Pad_f0002"  d="M -10.0 -10.000000000000002 L -5.0 5.0 L -5.0 5.0 L -10.0 -10.0 L -10.0 -10.0 Z " stroke="#191919" stroke-width="0.35 px" style="stroke-width:0.35;stroke-miterlimit:4;stroke-dasharray:none;stroke-linecap:square;fill:#cccccc;fill-opacity:1.0;fill-rule: evenodd"/>
<path id="Pad_f0003"  d="M -5.0 5.0 L -5.0 5.0 L 10.0 0.0 L 10.0 0.0 L -5.0 5.0 Z " stroke="#191919" stroke-width="0.35 px" style="stroke-width:0.35;stroke-miterlimit:4;stroke-dasharray:none;stroke-linecap:square;fill:#cccccc;fill-opacity:1.0;fill-rule: evenodd"/>
<path id="Pad_f0004"  d="M 10.0 0.0 L 6e-16 0.0 L 6e-16 0.0 L 10.0 0.0 L 10.0 0.0 Z " stroke="#191919" stroke-width="0.35 px" style="stroke-width:0.35;stroke-miterlimit:4;stroke-dasharray:none;stroke-linecap:square;fill:#cccccc;fill-opacity:1.0;fill-rule: evenodd"/>
<path id="Pad_f0005"  d="M 6e-16 0.0 L 0.0 -10.0 L -10.0 -10.0 L -5.0 5.0 L 10.0 0.0 L 6e-16 0.0 Z " stroke="#191919" stroke-width="0.35 px" style="stroke-width:0.35;stroke-miterlimit:4;stroke-dasharray:none;stroke-linecap:square;fill:#cccccc;fill-opacity:1.0;fill-rule: evenodd"/>
<path id="Pad_f0006"  d="M 6e-16 0.0 L 10.0 0.0 L -5.0 5.0 L -10.0 -10.0 L 0.0 -10.0 L 6e-16 0.0 Z " stroke="#191919" stroke-width="0.35 px" style="stroke-width:0.35;stroke-miterlimit:4;stroke-dasharray:none;stroke-linecap:square;fill:#cccccc;fill-opacity:1.0;fill-rule: evenodd"/>
<title>b'Pad'</title>
</g>
</svg>