<?xml version="1.0"?>
<!DOCTYPE svg PUBLIC "-//W3C//DTD SVG 1.1//EN" "http://www.w3.org/Graphics/SVG/1.1/DTD/svg11.dtd">
<svg width="25.499999999999986mm" height="75.5mm" viewBox="0 0 25.499999999999986 75.5" xmlns="http://www.w3.org/2000/svg" version="1.1">
<g id="Pad" transform="translate(-116.699067,107.216625) scale(1,-1)">
<path id="Pad_f0000"  d="M 116.949067 31.966625 L 116.949067 81.96662500000001 L 116.949067 81.96662500000001 L 116.949067 31.966625 L 116.949067 31.966625 Z " stroke="#191919" stroke-width="0.35 px" style="stroke-width:0.35;stroke-miterlimit:4;stroke-dasharray:none;stroke-linecap:square;fill:#cccccc;fill-opacity:1.0;fill-rule: evenodd"/>
<path id="Pad_f0001"  d="M 141.94906699999999 56.96662499999999 L 116.949067 31.966625 L 116.949067 31.966625 L 141.94906699999999 56.96662499999999 L 141.94906699999999 56.96662499999999 Z " stroke="#191919" stroke-width="0.35 px" style="stroke-width:0.35;stroke-miterlimit:4;stroke-dasharray:none;stroke-linecap:square;fill:#cccccc;fill-opacity:1.0;fill-rule: evenodd"/>
<path id="Pad_f0002"  d="M 141.94906699999999 106.966625 L 141.94906699999999 56.96662499999999 L 141.94906699999999 56.96662499999999 L 141.94906699999999 106.966625 L 141.94906699999999 106.966625 Z " stroke="#191919" stroke-width="0.35 px" style="stroke-width:0.35;stroke-miterlimit:4;stroke-dasharray:none;stroke-linecap:square;fill:#cccccc;fill-opacity:1.0;fill-rule: evenodd"/>
<path id="Pad_f0003"  d="M 116.949067 81.96662500000001 L 141.94906699999999 106.966625 L 141.94906699999999 106.966625 L 116.949067 81.96662500000001 L 116.949067 81.96662500000001 Z " stroke="#191919" stroke-width="0.35 px" style="stroke-width:0.35;stroke-miterlimit:4;stroke-dasharray:none;stroke-linecap:square;fill:#cccccc;fill-opacity:1.0;fill-rule: evenodd"/>
<path id="Pad_f0004"  d="M 116.949067 31.966625 L 141.94906699999999 56.96662499999999 L 141.94906699999999 106.966625 L 116.949067 81.96662500000001 L 116.949067 31.966625 Z " stroke="#191919" stroke-width="0.35 px" style="stroke-width:0.35;stroke-miterlimit:4;stroke-dasharray:none;stroke-linecap:square;fill:#cccccc;fill-opacity:1.0;fill-rule: evenodd"/>
<path id="Pad_f0005"  d="M 116.949067 81.96662500000001 L 116.949067 31.966625 L 141.94906699999999 56.96662499999999 L 141.94906699999999 106.966625 L 116.949067 81.96662500000001 Z " stroke="#191919" stroke-width="0.35 px" style="stroke-width:0.35;stroke-miterlimit:4;stroke-dasharray:none;stroke-linecap:square;fill:#cccccc;fill-opacity:1.0;fill-rule: evenodd"/>
<title>b'Pad'</title>
</g>
</svg>