<?xml version="1.0"?>
<!DOCTYPE svg PUBLIC "-//W3C//DTD SVG 1.1//EN" "http://www.w3.org/Graphics/SVG/1.1/DTD/svg11.dtd">
<svg width="51.00000000000007mm" height="41.00000000000009mm" viewBox="0 0 51.00000000000007 41.00000000000009" xmlns="http://www.w3.org/2000/svg" version="1.1">
<g id="Body" transform="translate(25.500000,40.500000) scale(1,-1)">
<path id="Body_f0000"  d="M -15.000000000000027 40.0 L -15.000000000000023 15.000000000000002 L 14.999999999999984 15.000000000000009 L 14.999999999999977 -3.4899999999999995e-15 L -25.00000000000006 1.332e-14 L -25.000000000000036 40.000000000000064 L -15.000000000000014 40.00000000000006 Z " stroke="#191919" stroke-width="0.35 px" style="stroke-width:0.35;stroke-miterlimit:4;stroke-dasharray:none;stroke-linecap:square;fill:#cccccc;fill-opacity:1.0;fill-rule: evenodd"/>
<path id="Body_f0001"  d="M -25.000000000000053 2.916000000302444e-14 L -25.000000000000036 40.000000000000064 L -24.999999999999996 40.00000000000005 L -25.000000000000014 2.082500000068318e-14 L -25.000000000000053 2.916000000302444e-14 Z " stroke="#191919" stroke-width="0.35 px" style="stroke-width:0.35;stroke-miterlimit:4;stroke-dasharray:none;stroke-linecap:square;fill:#cccccc;fill-opacity:1.0;fill-rule: evenodd"/>
<path id="Body_f0002"  d="M 25.0 40.00000000000007 L 24.999999999999993 40.00000000000007 L -14.999999999999996 40.00000000000005 L -15.000000000000027 40.00000000000003 L -25.000000000000075 40.000000000000064 L -24.999999999999996 40.00000000000005 L 25.000000000000014 40.00000000000004 Z " stroke="#191919" stroke-width="0.35 px" style="stroke-width:0.35;stroke-miterlimit:4;stroke-dasharray:none;stroke-linecap:square;fill:#cccccc;fill-opacity:1.0;fill-rule: evenodd"/>
<path id="Body_f0003"  d="M -15.000000000000014 40.00000000000006 L -14.999999999999996 40.00000000000005 L -15.000000000000005 15.00000000000004 L -15.000000000000028 15.000000000000048 L -15.000000000000014 40.00000000000006 Z " stroke="#191919" stroke-width="0.35 px" style="stroke-width:0.35;stroke-miterlimit:4;stroke-dasharray:none;stroke-linecap:square;fill:#cccccc;fill-opacity:1.0;fill-rule: evenodd"/>
<path id="Body_f0004"  d="M 14.999999999999988 15.000000000000016 L 15.000000000000004 15.000000000000009 L -15.000000000000005 15.00000000000004 L -15.000000000000028 15.000000000000048 L 14.999999999999984 15.000000000000009 Z " stroke="#191919" stroke-width="0.35 px" style="stroke-width:0.35;stroke-miterlimit:4;stroke-dasharray:none;stroke-linecap:square;fill:#cccccc;fill-opacity:1.0;fill-rule: evenodd"/>
<path id="Body_f0005"  d="M 14.999999999999988 15.000000000000016 L 15.000000000000004 15.000000000000009 L 14.999999999999991 1e-15 L 14.999999999999975 8e-15 L 14.999999999999988 15.000000000000016 Z " stroke="#191919" stroke-width="0.35 px" style="stroke-width:0.35;stroke-miterlimit:4;stroke-dasharray:none;stroke-linecap:square;fill:#cccccc;fill-opacity:1.0;fill-rule: evenodd"/>
<path id="Body_f0006"  d="M 14.999999999999977 -3.500000000000001e-15 L 15.0 6.500000000000001e-15 L 24.999999999999993 -9.33e-15 L 25.000000000000036 1.116e-14 L -25.00000000000002 1.665e-14 L -25.000000000000053 2.916000000302444e-14 L 14.999999999999975 8e-15 Z " stroke="#191919" stroke-width="0.35 px" style="stroke-width:0.35;stroke-miterlimit:4;stroke-dasharray:none;stroke-linecap:square;fill:#cccccc;fill-opacity:1.0;fill-rule: evenodd"/>
<path id="Body_f0007"  d="M -24.999999999999996 40.00000000000005 L 25.000000000000014 40.00000000000004 L 25.00000000000001 -2.5e-14 L -25.00000000000002 1.665e-14 L -25.00000000000007 40.00000000000004 Z " stroke="#191919" stroke-width="0.35 px" style="stroke-width:0.35;stroke-miterlimit:4;stroke-dasharray:none;stroke-linecap:square;fill:#cccccc;fill-opacity:1.0;fill-rule: evenodd"/>
<path id="Body_f0008"  d="M 25.000000000000014 40.000000000000014 L 24.999999999999996 -7.989554390003606e-15 L 25.000000000000036 1.116e-14 L 25.0 40.00000000000007 L 24.999999999999993 40.00000000000007 Z " stroke="#191919" stroke-width="0.35 px" style="stroke-width:0.35;stroke-miterlimit:4;stroke-dasharray:none;stroke-linecap:square;fill:#cccccc;fill-opacity:1.0;fill-rule: evenodd"/>
<path id="Body_f0009"  d="M 25.000000000000014 40.000000000000014 L -14.999999999999996 40.00000000000005 L -15.000000000000005 15.00000000000004 L 15.0 15.00000000000001 L 14.999999999999991 1e-15 L 24.999999999999993 -9.33e-15 L 25.00000000000001 40.000000000000014 Z " stroke="#191919" stroke-width="0.35 px" style="stroke-width:0.35;stroke-miterlimit:4;stroke-dasharray:none;stroke-linecap:square;fill:#cccccc;fill-opacity:1.0;fill-rule: evenodd"/>
<title>b'Body'</title>
</g>
</svg>